<svg id="FilledOutline" height="512" viewBox="0 0 512 512" width="512" xmlns="http://www.w3.org/2000/svg"><rect fill="#798b9b" height="48" rx="16" width="32" x="136" y="376"/><path d="m176 216-152 24v24h168v-56z" fill="#6a6a33"/><circle cx="56" cy="312" fill="#b9b973" r="16"/><circle cx="128" cy="312" fill="#b9b973" r="16"/><path d="m208 184h96l16-16-24-24h-80l-24 24z" fill="#6a6a33"/><path d="m303.6 342a71.791 71.791 0 0 0 24.4-54v-73.008l-24-30.992h-96l-24 30.992v73.008a71.636 71.636 0 0 0 21.12 50.88c1.04 1.04 2.16 2.08 3.28 3.12z" fill="#8d8d54"/><circle cx="256" cy="336" fill="#4f4f26" r="48"/><path d="m296 232v32l-15.38-3.08-15.39-3.07-9.23-1.85-8.86 1.77-8.33 1.67-22.81 4.56v-32l29.48-5.9 8.33-1.66 2.19-.44 15.38 3.08 15.39 3.07z" fill="#ccdce5"/><path d="m260.311 236.153h31.379v15.693h-31.379z" fill="#e9f0f1" transform="matrix(.196 -.981 .981 .196 -17.362 466.824)"/><path d="m253.81 224.44-6.67 33.33-8.33 1.67 6.67-33.34z" fill="#e9f0f1"/><circle cx="176" cy="184" fill="#4f4f26" r="32"/><rect fill="#798b9b" height="48" rx="16" transform="matrix(-1 0 0 -1 720 800)" width="32" x="344" y="376"/><path d="m336 216 152 24v24h-168v-56z" fill="#6a6a33"/><circle cx="456" cy="312" fill="#b9b973" r="16"/><circle cx="384" cy="312" fill="#b9b973" r="16"/><circle cx="336" cy="184" fill="#4f4f26" r="32"/><path d="m248 328h16v16h-16z"/><path d="m297.569 224.155-40-8a8.006 8.006 0 0 0 -3.138 0l-40 8a8 8 0 0 0 -6.431 7.845v32a8 8 0 0 0 9.569 7.845l38.431-7.687 38.431 7.687a8 8 0 0 0 9.569-7.845v-32a8 8 0 0 0 -6.431-7.845zm-9.569 30.086-30.431-6.086a8.019 8.019 0 0 0 -3.138 0l-30.431 6.086v-15.682l32-6.4 32 6.4z"/><path d="m168 176h16v16h-16z"/><path d="m489.248 232.1-125.061-19.749a39.976 39.976 0 0 0 -50.229-61.707l-12.3-12.3a8 8 0 0 0 -5.658-2.344h-32v-22.821l222.907 30.746 2.186-15.85-174.545-24.075 174.545-24.075-2.186-15.85-222.907 30.746v-14.821h-16v14.821l-222.907-30.746-2.186 15.85 174.545 24.075-174.545 24.075 2.186 15.85 222.907-30.746v22.821h-32a8 8 0 0 0 -5.657 2.343l-12.3 12.3a39.977 39.977 0 0 0 -50.229 61.707l-125.062 19.75a8 8 0 0 0 -6.752 7.9v24a8 8 0 0 0 8 8h24v17.376a24 24 0 1 0 16 0v-17.376h56v17.376a24 24 0 1 0 16 0v-17.376h40v16a79.9 79.9 0 0 0 5.438 29.055l-34.56 28.8a8 8 0 0 0 -2.878 6.145v17.376a24.039 24.039 0 0 0 -16 22.624v16a24 24 0 0 0 48 0v-16a24.039 24.039 0 0 0 -16-22.624v-13.629l28.942-24.119a80.031 80.031 0 0 0 10.521 12.909c.474.473.955.934 1.436 1.392a55.986 55.986 0 0 0 110.193.046 80.094 80.094 0 0 0 11.95-14.367l28.958 24.138v13.63a24.039 24.039 0 0 0 -16 22.624v16a24 24 0 0 0 48 0v-16a24.039 24.039 0 0 0 -16-22.624v-17.376a8 8 0 0 0 -2.878-6.146l-34.586-28.829a79.863 79.863 0 0 0 5.464-29.025v-16h40v17.376a24 24 0 1 0 16 0v-17.376h56v17.376a24 24 0 1 0 16 0v-17.376h24a8 8 0 0 0 8-8v-24a8 8 0 0 0 -6.752-7.9zm-433.248 87.9a8 8 0 1 1 8-8 8.009 8.009 0 0 1 -8 8zm72 0a8 8 0 1 1 8-8 8.009 8.009 0 0 1 -8 8zm32 88a8 8 0 0 1 -16 0v-16a8 8 0 0 1 16 0zm208 0a8 8 0 0 1 -16 0v-16a8 8 0 0 1 16 0zm16-88a8 8 0 1 1 8-8 8.009 8.009 0 0 1 -8 8zm72 0a8 8 0 1 1 8-8 8.009 8.009 0 0 1 -8 8zm-120-160a24 24 0 1 1 -24 24 24.028 24.028 0 0 1 24-24zm-116.687-8h73.374l9.957 9.958a39.764 39.764 0 0 0 -5.839 14.042h-81.605a39.764 39.764 0 0 0 -5.839-14.042zm-43.313 8a24 24 0 1 1 -24 24 24.028 24.028 0 0 1 24-24zm-144 96v-9.164l144-22.736v31.9zm224 120a40 40 0 1 1 40-40 40.045 40.045 0 0 1 -40 40zm54.211-54.058a56.006 56.006 0 0 0 -108.435.045 63.378 63.378 0 0 1 -9.776-33.987v-67.35a40.14 40.14 0 0 0 23.2-28.65h81.61a40.14 40.14 0 0 0 23.19 28.65v67.35a63.938 63.938 0 0 1 -9.789 33.942zm169.789-65.942h-144v-31.9l144 22.737z"/><path d="m328 176h16v16h-16z"/></svg>