<svg height="496pt" viewBox="0 0 496 496" width="496pt" xmlns="http://www.w3.org/2000/svg" xmlns:xlink="http://www.w3.org/1999/xlink"><linearGradient id="a" gradientUnits="userSpaceOnUse" x1="248" x2="248" y1="496" y2="0"><stop offset="0" stop-color="#9f2fff"/><stop offset="1" stop-color="#0bb1d3"/></linearGradient><path d="m208 96c0 22.054688 17.945312 40 40 40s40-17.945312 40-40v-8h-80zm62.632812 8c-3.304687 9.3125-12.199218 16-22.632812 16s-19.328125-6.6875-22.632812-16zm185.367188 64c0-13.230469-10.769531-24-24-24s-24 10.769531-24 24v1.039062l-16-7.613281v-49.425781c0-13.230469-10.769531-24-24-24s-24 10.769531-24 24v26.566406l-19.046875-9.070312c-5.378906-35.0625-17.898437-68.726563-37.128906-98.960938l-8.488281-13.335937c-6.855469-10.765625-18.566407-17.199219-31.335938-17.199219s-24.480469 6.433594-31.335938 17.199219l-8.488281 13.335937c-19.230469 30.226563-31.75 63.898438-37.128906 98.953125l-19.046875 9.078125v-26.566406c0-13.230469-10.769531-24-24-24s-24 10.769531-24 24v49.425781l-16 7.613281v-1.039062c0-13.230469-10.769531-24-24-24s-24 10.769531-24 24v23.894531l-40 19.050781v45.054688h176.9375l14.367188 114.960938-95.304688 39.703124v37.335938h125.632812l-6.855468 48h66.445312l-6.855468-48h125.632812v-37.335938l-95.304688-39.703124 14.367188-114.960938h176.9375v-45.054688l-40-19.050781zm-32 0c0-4.414062 3.59375-8 8-8s8 3.585938 8 8v16.28125l-16-7.617188zm-56-64c4.40625 0 8 3.585938 8 8v8h-16v-8c0-4.414062 3.59375-8 8-8zm-8 32h16v17.800781l-16-7.617187zm-232-32c4.40625 0 8 3.585938 8 8v8h-16v-8c0-4.414062 3.59375-8 8-8zm-8 32h16v10.183594l-16 7.617187zm-64 32c0-4.414062 3.59375-8 8-8s8 3.585938 8 8v8.65625l-16 7.617188zm-40 72v-16h144v-16h-116.585938l125.441407-59.734375c-.527344 6.710937-.855469 13.453125-.855469 20.230469 0 10.625.664062 21.351562 1.984375 31.871094l4.953125 39.632812zm96 192v-10.664062l86.128906-35.886719 28.214844 28.207031.230469-.230469-2.652344 18.574219zm121.222656 48 13.5625-94.945312c.167969-1.199219 2.253906-1.199219 2.429688 0l13.5625 94.945312zm150.777344-48h-111.921875l-2.652344-18.574219.230469.230469 28.214844-28.207031 86.128906 35.886719zm-95.601562-59.71875-21.742188 21.75-1.609375-11.238281c-1.207031-8.433594-8.535156-14.792969-17.046875-14.792969s-15.839844 6.359375-17.046875 14.792969l-1.609375 11.238281-21.742188-21.75-21.738281-173.890625c-1.238281-9.871094-1.863281-19.917969-1.863281-29.894531 0-45.902344 13.023438-90.640625 37.671875-129.367188l8.488281-13.335937c3.902344-6.128907 10.574219-9.792969 17.839844-9.792969s13.9375 3.664062 17.839844 9.800781l8.488281 13.335938c24.648437 38.71875 37.671875 83.457031 37.671875 129.359375 0 9.96875-.625 20.023437-1.855469 29.886718zm32.664062-132.28125 4.953125-39.625c1.320313-10.527344 1.984375-21.246094 1.984375-31.878906 0-6.777344-.328125-13.519532-.855469-20.230469l125.441407 59.734375h-116.585938v16h144v16zm-305.0625 112h-16v-80h16zm0 32h-16v-16h16zm32 24h-16v-88h16zm-16 16h16v16h-16zm48 40h-16v-88h16zm-16 16h16v16h-16zm416-208h16v80h-16zm0 96h16v16h-16zm-16 40h-16v-88h16zm-16 16h16v16h-16zm-16 40h-16v-88h16zm-16 16h16v16h-16zm0 0" fill="url(#a)"/></svg>