<?xml version="1.0" encoding="iso-8859-1"?>
<!-- Generator: Adobe Illustrator 19.0.0, SVG Export Plug-In . SVG Version: 6.00 Build 0)  -->
<svg version="1.1" id="Capa_1" xmlns="http://www.w3.org/2000/svg" xmlns:xlink="http://www.w3.org/1999/xlink" x="0px" y="0px"
	 viewBox="0 0 512.001 512.001" style="enable-background:new 0 0 512.001 512.001;" xml:space="preserve">
<polygon style="fill:#DE4C3C;" points="264.533,401.076 375.457,469.337 375.457,503.467 273.066,486.402 "/>
<polygon style="fill:#CF4737;" points="264.533,401.076 273.066,486.402 295.191,490.088 308.263,427.988 "/>
<polygon style="fill:#DE4C3C;" points="247.468,401.076 136.544,469.337 136.544,503.467 238.935,486.402 "/>
<g>
	<path style="fill:#4398D1;" d="M119.478,247.489v-25.598c0-9.429,7.637-17.065,17.065-17.065l0,0
		c9.429,0,17.065,7.637,17.065,17.065v25.598H119.478z"/>
	<path style="fill:#4398D1;" d="M42.685,290.152v-25.598c0-9.429,7.637-17.065,17.065-17.065l0,0
		c9.429,0,17.065,7.637,17.065,17.065l0,0v25.598H42.685z"/>
	<path style="fill:#4398D1;" d="M392.522,247.489v-25.598c0-9.429-7.637-17.065-17.065-17.065l0,0
		c-9.429,0-17.065,7.637-17.065,17.065v25.598H392.522z"/>
	<path style="fill:#4398D1;" d="M435.185,264.554L435.185,264.554c0-9.429,7.637-17.065,17.065-17.065l0,0
		c9.429,0,17.065,7.637,17.065,17.065v25.598h-34.13V264.554z"/>
</g>
<g>
	<path style="fill:#CFCFCF;" d="M298.663,366.946V99.943c0-25.538-5.751-50.752-16.818-73.765
		c-3.507-8.08-10.393-14.207-18.832-16.75c-12.637-3.302-25.862,2.696-31.707,14.377c-11.826,23.635-17.978,49.703-17.97,76.137
		v267.003l23.038,119.644c1.459,9.71,9.804,16.886,19.625,16.878l0,0c9.821,0.009,18.166-7.167,19.625-16.878L298.663,366.946z"/>
	<polygon style="fill:#CFCFCF;" points="213.337,196.293 8.554,307.217 8.554,358.413 213.337,281.619 	"/>
	<polygon style="fill:#CFCFCF;" points="298.663,196.293 503.446,307.217 503.446,358.413 298.663,281.619 	"/>
</g>
<g>
	<polygon style="fill:#C4C4C4;" points="187.739,210.159 187.739,291.219 213.337,281.619 213.337,196.293 	"/>
	<polygon style="fill:#C4C4C4;" points="324.261,210.159 298.663,196.293 298.663,281.619 324.261,291.219 	"/>
	<path style="fill:#C4C4C4;" d="M281.846,26.178c-2.09-4.36-5.085-8.217-8.78-11.331v478.817c1.305-2.167,2.167-4.573,2.56-7.074
		l23.038-119.644V99.943C298.663,74.405,292.913,49.191,281.846,26.178z"/>
</g>
<path style="fill:#126099;" d="M264.968,88.065l-5.828-17.5c-0.742-1.732-2.747-2.543-4.48-1.8c-0.811,0.341-1.459,0.99-1.8,1.8
	l-5.828,17.5l-16.212-5.393l5.836-17.5c3.567-10.674,15.111-16.434,25.786-12.867c6.075,2.031,10.845,6.8,12.867,12.867
	l5.836,17.509L264.968,88.065z"/>
<path d="M507.508,299.717l-29.659-16.067v-19.096c0.051-14.096-11.331-25.564-25.427-25.615
	c-11.127-0.043-20.999,7.133-24.395,17.722l-26.972-14.608v-20.163c0.034-14.096-11.365-25.555-25.47-25.589
	c-11.459-0.026-21.528,7.586-24.634,18.61l-43.755-23.738V99.874c-0.051-26.792-6.084-53.235-17.663-77.391
	c-4.599-10.35-13.533-18.14-24.412-21.289c-16.536-4.36-33.857,3.507-41.451,18.831c-12.372,24.821-18.831,52.177-18.866,79.917
	v91.231l-43.755,23.704c-3.823-13.575-17.919-21.477-31.494-17.654c-11.041,3.106-18.652,13.2-18.61,24.668v20.163l-26.972,14.608
	c-4.309-13.422-18.678-20.811-32.1-16.502c-10.598,3.396-17.765,13.268-17.722,24.395v19.096L4.493,299.717
	c-2.756,1.493-4.471,4.369-4.471,7.5v51.196c0,4.71,3.823,8.533,8.533,8.533c1.024,0,2.039-0.179,2.995-0.538l193.255-72.476v73.014
	c0,0.538,0.051,1.084,0.154,1.613l8.601,44.617l-81.41,48.849c-2.568,1.544-4.138,4.318-4.138,7.312v34.13
	c0,4.71,3.823,8.533,8.533,8.533c0.469,0,0.947-0.034,1.408-0.119l92.801-15.461c7.022,13.959,24.036,19.582,37.996,12.551
	c5.427-2.73,9.821-7.133,12.551-12.551l92.75,15.453c0.461,0.085,0.939,0.128,1.408,0.128c4.71,0,8.533-3.823,8.533-8.533v-34.13
	c0-2.995-1.57-5.768-4.138-7.312l-81.41-48.849l8.601-44.617c0.102-0.529,0.154-1.075,0.154-1.613v-73.014l193.255,72.476
	c0.956,0.358,1.971,0.538,2.995,0.538c4.71,0,8.533-3.823,8.533-8.533v-51.196C511.971,304.086,510.255,301.21,507.508,299.717z
	 M443.718,264.554c0-4.71,3.823-8.533,8.533-8.533s8.533,3.823,8.533,8.533v9.847l-18.183-9.847H443.718L443.718,264.554z
	 M366.924,221.891c0-4.71,3.823-8.533,8.533-8.533s8.533,3.823,8.533,8.533v10.913l-17.065-9.207V221.891z M128.011,221.891
	c0-4.71,3.823-8.533,8.533-8.533s8.533,3.823,8.533,8.533v1.707l-17.065,9.241V221.891z M51.217,264.554
	c0-4.71,3.823-8.533,8.533-8.533s8.533,3.823,8.533,8.533H69.4l-18.183,9.847V264.554z M17.087,346.1v-33.764l187.718-101.717
	v65.087L17.087,346.1z M145.076,474.166l71.93-43.158l9.386,48.832l-81.316,13.55L145.076,474.166L145.076,474.166z M256,494.935
	c-5.717-0.017-10.529-4.283-11.22-9.958l-22.91-118.885V99.874c0.026-25.094,5.87-49.831,17.065-72.288
	c4.027-8.115,13.217-12.261,21.963-9.923c5.998,1.937,10.845,6.417,13.251,12.244c10.487,21.861,15.947,45.795,15.982,70.036v266.15
	l-22.97,119.201C266.368,490.848,261.606,494.96,256,494.935z M366.924,474.166v19.224l-81.333-13.55l9.386-48.824L366.924,474.166z
	 M494.914,346.1l-187.718-70.394v-65.087l187.718,101.717V346.1z"/>
<path d="M256,51.238c-8.772-0.009-16.562,5.606-19.326,13.934l-5.836,17.5l16.212,5.393l5.828-17.5
	c0.742-1.732,2.747-2.543,4.48-1.8c0.811,0.341,1.459,0.99,1.8,1.8l5.828,17.5l16.212-5.393l-5.836-17.509
	C272.588,56.836,264.78,51.221,256,51.238z"/>
<g>
</g>
<g>
</g>
<g>
</g>
<g>
</g>
<g>
</g>
<g>
</g>
<g>
</g>
<g>
</g>
<g>
</g>
<g>
</g>
<g>
</g>
<g>
</g>
<g>
</g>
<g>
</g>
<g>
</g>
</svg>
