<svg height="464pt" viewBox="0 0 464 464" width="464pt" xmlns="http://www.w3.org/2000/svg"><path d="m368 96c0-8.839844-7.160156-16-16-16s-16 7.160156-16 16v8h32zm0 0"/><path d="m128 96c0-8.839844-7.160156-16-16-16s-16 7.160156-16 16v8h32zm0 0"/><path d="m230.785156 369.054688-13.5625 94.945312h29.554688l-13.5625-94.945312c-.175782-1.207032-2.253906-1.207032-2.429688 0zm0 0"/><path d="m153.984375 184.375c-1.320313-10.527344-1.984375-21.246094-1.984375-31.878906 0-6.777344.328125-13.519532.855469-20.230469l-24.855469 9.710937v-21.976562h-32v34.480469l-32 12.503906v-14.984375c0-8.839844-7.160156-16-16-16s-16 7.160156-16 16v27.496094l-32 12.503906h136v16h-136v16h158.9375zm0 0"/><path d="m182.128906 369.449219-86.128906 35.886719v10.664062h111.921875l2.652344-18.574219-.230469.230469zm0 0"/><path d="m253.65625 397.65625-.230469-.230469 2.652344 18.574219h111.921875v-10.664062l-86.128906-35.886719zm0 0"/><path d="m328 192h136l-32-12.503906v-27.496094c0-8.839844-7.160156-16-16-16s-16 7.160156-16 16v14.992188l-32-12.503907v-34.488281h-32v21.976562l-24.855469-9.710937c.527344 6.71875.855469 13.453125.855469 20.230469 0 10.625-.664062 21.351562-1.984375 31.871094l-4.953125 39.632812h158.9375v-16h-136zm0 0"/><path d="m294.144531 182.390625c1.230469-9.871094 1.855469-19.917969 1.855469-29.894531 0-45.902344-13.023438-90.640625-37.671875-129.367188l-8.488281-13.328125c-3.902344-6.136719-10.574219-9.800781-17.839844-9.800781s-13.9375 3.664062-17.839844 9.800781l-8.488281 13.335938c-24.648437 38.71875-37.671875 83.457031-37.671875 129.359375 0 9.96875.625 20.023437 1.855469 29.886718l21.738281 173.890626 21.742188 21.75 1.609374-11.238282c1.214844-8.425781 8.542969-14.785156 17.054688-14.785156s15.839844 6.359375 17.046875 14.792969l1.609375 11.238281 21.742188-21.75zm-22.144531-102.390625c0 22.054688-17.945312 40-40 40s-40-17.945312-40-40v-8h80zm0 0"/><path d="m0 240h16v80h-16zm0 0"/><path d="m0 336h16v16h-16zm0 0"/><path d="m32 288h16v88h-16zm0 0"/><path d="m32 392h16v16h-16zm0 0"/><path d="m64 344h16v88h-16zm0 0"/><path d="m64 448h16v16h-16zm0 0"/><path d="m448 240h16v80h-16zm0 0"/><path d="m448 336h16v16h-16zm0 0"/><path d="m416 288h16v88h-16zm0 0"/><path d="m416 392h16v16h-16zm0 0"/><path d="m384 344h16v88h-16zm0 0"/><path d="m384 448h16v16h-16zm0 0"/></svg>